<svg xmlns="http://www.w3.org/2000/svg" xmlns:xlink="http://www.w3.org/1999/xlink" width="1080" zoomAndPan="magnify" viewBox="0 0 810 809.999993" height="1080" preserveAspectRatio="xMidYMid meet" version="1.0"><defs><clipPath id="dc729d8637"><path d="M 10.773438 277 L 181 277 L 181 476 L 10.773438 476 Z M 10.773438 277 " clip-rule="nonzero"/></clipPath><clipPath id="558f551665"><path d="M 10.773438 164.164062 L 191 164.164062 L 191 327 L 10.773438 327 Z M 10.773438 164.164062 " clip-rule="nonzero"/></clipPath><clipPath id="8d9d10c6a0"><path d="M 630 277 L 799.023438 277 L 799.023438 476 L 630 476 Z M 630 277 " clip-rule="nonzero"/></clipPath><clipPath id="b482d22306"><path d="M 619 164.164062 L 799.023438 164.164062 L 799.023438 327 L 619 327 Z M 619 164.164062 " clip-rule="nonzero"/></clipPath><clipPath id="01ecc0360e"><path d="M 189 260 L 621 260 L 621 645.664062 L 189 645.664062 Z M 189 260 " clip-rule="nonzero"/></clipPath><clipPath id="0fbc11028d"><path d="M 30 164.164062 L 797 164.164062 L 797 645.664062 L 30 645.664062 Z M 30 164.164062 " clip-rule="nonzero"/></clipPath></defs><path fill="#eeb79e" d="M 239.753906 438.210938 L 242.273438 327.710938 C 197.378906 333.816406 191.523438 365.738281 191.523438 365.738281 C 170.402344 351.164062 170.402344 351.164062 148.144531 349.777344 C 114.363281 347.699219 91.066406 366.496094 91.066406 366.496094 C 98.308594 342.945312 90.34375 332.273438 89.460938 307.9375 C 89.085938 297.296875 88.519531 293.488281 91.066406 271.453125 C 92.328125 260.464844 97.742188 247.433594 101.425781 237.105469 C 107.46875 241.199219 122.109375 234.398438 127.554688 231.15625 C 133.125 227.820312 137.945312 223.476562 143.484375 220.105469 C 152.769531 214.472656 164.921875 209.308594 163.410156 197.09375 C 162.089844 186.265625 151.921875 181.257812 142.539062 177.132812 C 135.707031 174.144531 128.78125 164.257812 120.3125 166.273438 C 116.285156 167.25 114.144531 171.277344 110.933594 173.453125 C 107.375 175.875 102.96875 177.007812 99.0625 178.867188 C 94.058594 181.226562 89.492188 184.972656 84.675781 187.398438 C 72.429688 193.503906 70.917969 202.128906 66.984375 213.875 C 59.429688 236.539062 47.898438 255.367188 35.414062 276.015625 C 22.257812 297.769531 17.082031 317.636719 13.75 342.378906 C 12.101562 354.59375 13.121094 368.445312 14.746094 380.378906 C 16.242188 391.394531 14.128906 403.769531 25.355469 410.632812 C 27.203125 411.765625 30.019531 411.953125 32.207031 413.277344 C 34.261719 414.535156 35.898438 416.488281 37.8125 417.871094 C 53.605469 429.332031 71.203125 433.613281 89.652344 438.808594 C 106.996094 443.65625 122.171875 453.414062 139.800781 457.757812 C 157.652344 462.136719 176.539062 462.636719 194.703125 459.773438 C 194.703125 459.773438 222.09375 458.765625 239.753906 438.210938 " fill-opacity="1" fill-rule="nonzero"/><path stroke-linecap="butt" transform="matrix(0.314813, 0, 0, -0.314813, -264.135744, 1075.23347)" fill="none" stroke-linejoin="miter" d="M 1447.395868 2253.702868 C 1447.395868 2253.702868 1445.695951 2210.795466 1477.498054 2186.301766 " stroke="#dea08d" stroke-width="20" stroke-opacity="1" stroke-miterlimit="10"/><g clip-path="url(#dc729d8637)"><path stroke-linecap="butt" transform="matrix(0.314813, 0, 0, -0.314813, -264.135744, 1075.23347)" fill="none" stroke-linejoin="miter" d="M 1128.295326 2251.295686 C 1128.295326 2251.295686 1105.99787 2191.202988 1071.800992 2186.301766 " stroke="#dea08d" stroke-width="20" stroke-opacity="1" stroke-miterlimit="10"/></g><g clip-path="url(#558f551665)"><path stroke-linecap="butt" transform="matrix(0.314813, 0, 0, -0.314813, -264.135744, 1075.23347)" fill="none" stroke-linejoin="miter" d="M 1100.00473 2704.503576 C 1100.00473 2704.503576 1118.803086 2661.496908 1161.201755 2662.303438 " stroke="#dea08d" stroke-width="20" stroke-opacity="1" stroke-miterlimit="10"/></g><path fill="#eeb79e" d="M 570.558594 438.210938 L 568.042969 327.710938 C 612.933594 333.816406 618.789062 365.738281 618.789062 365.738281 C 639.914062 351.164062 639.914062 351.164062 662.171875 349.777344 C 695.917969 347.699219 719.246094 366.496094 719.246094 366.496094 C 712.003906 342.945312 719.96875 332.273438 720.851562 307.9375 C 721.230469 297.265625 721.796875 293.488281 719.246094 271.453125 C 717.957031 260.464844 712.570312 247.433594 708.886719 237.105469 C 702.84375 241.199219 688.207031 234.398438 682.757812 231.15625 C 677.1875 227.820312 672.371094 223.476562 666.828125 220.105469 C 657.542969 214.472656 645.390625 209.308594 646.902344 197.09375 C 648.222656 186.265625 658.394531 181.257812 667.773438 177.132812 C 674.605469 174.144531 681.53125 164.257812 689.96875 166.273438 C 694.03125 167.25 696.171875 171.246094 699.382812 173.453125 C 702.9375 175.875 707.347656 177.007812 711.25 178.867188 C 716.253906 181.226562 720.820312 184.972656 725.636719 187.398438 C 737.882812 193.503906 739.394531 202.128906 743.328125 213.875 C 750.882812 236.539062 762.40625 255.367188 774.90625 276.015625 C 788.0625 297.769531 793.226562 317.636719 796.5625 342.378906 C 798.199219 354.59375 797.195312 368.445312 795.558594 380.378906 C 794.078125 391.363281 796.1875 403.769531 784.949219 410.632812 C 783.121094 411.765625 780.289062 411.953125 778.117188 413.277344 C 776.039062 414.535156 774.402344 416.488281 772.511719 417.871094 C 756.707031 429.332031 739.109375 433.613281 720.664062 438.808594 C 703.316406 443.65625 688.109375 453.414062 670.511719 457.757812 C 652.632812 462.136719 633.773438 462.636719 615.609375 459.773438 C 615.609375 459.773438 588.222656 458.765625 570.558594 438.210938 " fill-opacity="1" fill-rule="nonzero"/><path stroke-linecap="butt" transform="matrix(0.314813, 0, 0, -0.314813, -264.135744, 1075.23347)" fill="none" stroke-linejoin="miter" d="M 2804.599948 2253.702868 C 2804.599948 2253.702868 2806.299865 2210.795466 2774.497762 2186.301766 " stroke="#dea08d" stroke-width="20" stroke-opacity="1" stroke-miterlimit="10"/><g clip-path="url(#8d9d10c6a0)"><path stroke-linecap="butt" transform="matrix(0.314813, 0, 0, -0.314813, -264.135744, 1075.23347)" fill="none" stroke-linejoin="miter" d="M 3123.70049 2251.295686 C 3123.70049 2251.295686 3145.997946 2191.202988 3180.194823 2186.301766 " stroke="#dea08d" stroke-width="20" stroke-opacity="1" stroke-miterlimit="10"/></g><g clip-path="url(#b482d22306)"><path stroke-linecap="butt" transform="matrix(0.314813, 0, 0, -0.314813, -264.135744, 1075.23347)" fill="none" stroke-linejoin="miter" d="M 3152.003493 2704.503576 C 3152.003493 2704.503576 3133.205137 2661.496908 3090.794061 2662.303438 " stroke="#dea08d" stroke-width="20" stroke-opacity="1" stroke-miterlimit="10"/></g><g clip-path="url(#01ecc0360e)"><path fill="#012e40" d="M 405.15625 645.890625 L 215.511719 431.0625 C 178.050781 388.59375 182.082031 323.773438 224.546875 286.28125 C 267.015625 248.816406 331.804688 252.816406 369.332031 295.285156 L 405.15625 335.894531 L 440.984375 295.285156 C 478.476562 252.816406 543.296875 248.816406 585.734375 286.28125 C 628.234375 323.773438 632.292969 388.59375 594.800781 431.0625 L 405.15625 645.890625 " fill-opacity="1" fill-rule="nonzero"/></g><g clip-path="url(#0fbc11028d)"><path stroke-linecap="butt" transform="matrix(0.314813, 0, 0, -0.314813, -264.135744, 1075.23347)" fill="none" stroke-linejoin="miter" d="M 1641.794445 2037.999488 L 2125.997908 2037.999488 L 2213.698753 2319.701849 L 2313.894611 1782.403887 L 2420.393812 2049.700379 L 2662.303217 2049.700379 " stroke="#ffffff" stroke-width="50" stroke-opacity="1" stroke-miterlimit="10"/></g></svg>